<?xml version="1.0" encoding="UTF-8" standalone="no"?>
<svg
   xmlns:dc="http://purl.org/dc/elements/1.1/"
   xmlns:cc="http://creativecommons.org/ns#"
   xmlns:rdf="http://www.w3.org/1999/02/22-rdf-syntax-ns#"
   xmlns:svg="http://www.w3.org/2000/svg"
   xmlns="http://www.w3.org/2000/svg"
   xmlns:sodipodi="http://sodipodi.sourceforge.net/DTD/sodipodi-0.dtd"
   xmlns:inkscape="http://www.inkscape.org/namespaces/inkscape"
   inkscape:version="1.0 (4035a4fb49, 2020-05-01)"
   id="gz-svg-character-gatsby"
   version="1.1"
   viewBox="0 0 540 540"
   height="540"
   width="540"
   sodipodi:docname="character-gatsby.svg">
  <defs
     id="defs12591">
    <inkscape:path-effect
       effect="fillet_chamfer"
       id="path-effect1047"
       is_visible="true"
       lpeversion="1"
       satellites_param="F,0,0,1,0,0,0,1 @ F,0,0,1,0,0,0,1 @ F,0,0,1,0,0,0,1 @ F,0,0,1,0,0,0,1 @ F,0,0,1,0,6.8347298,0,1 @ F,0,0,1,0,0,0,1"
       unit="px"
       method="auto"
       mode="F"
       radius="0"
       chamfer_steps="1"
       flexible="false"
       use_knot_distance="true"
       apply_no_radius="true"
       apply_with_radius="true"
       only_selected="false"
       hide_knots="false" />
    <inkscape:path-effect
       effect="fillet_chamfer"
       id="path-effect1045"
       is_visible="true"
       lpeversion="1"
       satellites_param="F,0,0,1,0,0,0,1 @ F,0,0,1,0,0,0,1 @ F,0,0,1,0,7.5852134,0,1 @ F,0,0,1,0,0,0,1 @ F,0,0,1,0,0,0,1 @ F,0,0,1,0,0,0,1"
       unit="px"
       method="auto"
       mode="F"
       radius="0"
       chamfer_steps="1"
       flexible="false"
       use_knot_distance="true"
       apply_no_radius="true"
       apply_with_radius="true"
       only_selected="false"
       hide_knots="false" />
    <inkscape:path-effect
       effect="mirror_symmetry"
       start_point="281.7634,337.70967"
       end_point="281.7634,536.19477"
       center_point="281.7634,436.95222"
       id="path-effect1002"
       is_visible="true"
       lpeversion="1"
       mode="free"
       discard_orig_path="false"
       fuse_paths="false"
       oposite_fuse="false"
       split_items="false" />
    <inkscape:path-effect
       effect="mirror_symmetry"
       start_point="282.19753,337.70967"
       end_point="282.19753,536.19477"
       center_point="282.19753,436.95222"
       id="path-effect1000"
       is_visible="true"
       lpeversion="1"
       mode="free"
       discard_orig_path="false"
       fuse_paths="false"
       oposite_fuse="false"
       split_items="false" />
    <inkscape:path-effect
       effect="mirror_symmetry"
       start_point="278.856,289.615"
       end_point="278.856,428.801"
       center_point="278.856,359.208"
       id="path-effect998"
       is_visible="true"
       lpeversion="1"
       mode="free"
       discard_orig_path="false"
       fuse_paths="false"
       oposite_fuse="false"
       split_items="false" />
  </defs>
  <sodipodi:namedview
     inkscape:snap-page="true"
     inkscape:guide-bbox="true"
     showguides="true"
     inkscape:object-nodes="true"
     inkscape:snap-bbox="true"
     inkscape:showpageshadow="false"
     units="px"
     showgrid="false"
     inkscape:document-rotation="0"
     inkscape:current-layer="gz-svg-character-gatsby"
     inkscape:document-units="px"
     inkscape:cy="214.51458"
     inkscape:cx="299.43017"
     inkscape:zoom="2.8284271"
     inkscape:pageshadow="2"
     inkscape:pageopacity="0.0"
     borderopacity="1.0"
     bordercolor="#666666"
     pagecolor="#ffffff"
     id="base"
     inkscape:snap-bbox-edge-midpoints="false"
     inkscape:bbox-paths="false"
     inkscape:object-paths="true"
     inkscape:snap-nodes="true"
     inkscape:snap-global="false"
     showborder="true"
     inkscape:window-width="1904"
     inkscape:window-height="1048"
     inkscape:window-x="8"
     inkscape:window-y="24"
     inkscape:window-maximized="0"
     inkscape:bbox-nodes="false"
     inkscape:snap-smooth-nodes="false"
     inkscape:snap-intersection-paths="false"
     inkscape:snap-center="false" />
  <metadata
     id="metadata12594">
    <rdf:RDF>
      <cc:Work
         rdf:about="">
        <dc:format>image/svg+xml</dc:format>
        <dc:type
           rdf:resource="http://purl.org/dc/dcmitype/StillImage" />
        <dc:title></dc:title>
      </cc:Work>
    </rdf:RDF>
  </metadata>
  <g
     id="left-body">
    <path
       d="m 331.98194,149.84714 c 0,0 -5.54899,52.84196 -1.84616,61.70767 l 13.18539,31.56748 a 5.3779313,5.3779313 0 0 0 7.0492,2.8842 l 62.26283,-26.22404 a 17.998774,17.998774 0 0 1 -12.21065,-15.40031 17.998774,17.998774 0 0 1 1.70789,-9.48127 l -42.64513,17.96046 z"
       style="fill:#b29b5c"
       id="left-arm" />
    <path
       d="m 409.51041,191.79236 -7.37997,3.10851 a 17.998774,17.998774 0 0 0 -1.70789,9.48127 17.998774,17.998774 0 0 0 12.21065,15.40031 l 7.36127,-3.09979 z"
       style="fill:#ffffff"
       id="left-cuff" />
    <path
       d="m 432.33721,201.41199 c 0.60594,5.68234 -2.671,11.50651 -7.84233,13.93829 -5.10737,2.57136 -11.71793,1.55418 -15.81572,-2.43422 -4.20351,-3.87669 -5.57683,-10.42249 -3.28397,-15.66135 2.15008,-5.29929 7.79607,-8.88455 13.50568,-8.58249 5.7126,0.14958 11.05314,4.16677 12.78089,9.61389 0.33631,1.01255 0.55669,2.06352 0.65545,3.12588 z"
       style="fill:#e9ddaf"
       id="left-hand" />
  </g>
  <g
     id="right-body">
    <path
       d="m 211.93527,161.02088 -21.08984,79.295 -43.66879,53.52597 a 17.342229,17.342229 0 0 1 1.77496,-0.27821 17.342229,17.342229 0 0 1 16.29855,7.73552 17.342229,17.342229 0 0 1 2.84224,9.62966 l 43.98184,-53.90941 a 21.671369,21.671369 0 0 0 4.24183,-8.484 l 7.7601,-31.29073 c 2.16618,-8.73519 -12.14089,-56.2238 -12.14089,-56.2238 z"
       style="fill:#b29b5c"
       id="right-arm" />
    <path
       d="m 148.9516,293.56364 a 17.342229,17.342229 0 0 0 -1.77496,0.27821 l -2.11227,2.5889 20.92705,17.07338 2.10111,-2.57391 a 17.342229,17.342229 0 0 0 -2.84238,-9.63106 17.342229,17.342229 0 0 0 -16.29855,-7.73552 z"
       style="fill:#ffffff"
       id="right-cuff" />
    <path
       d="m 139.0004,318.52203 c -3.19874,-4.73543 -3.03404,-11.41615 0.39416,-15.9882 3.30627,-4.66539 9.62243,-6.86543 15.11167,-5.26308 5.53025,1.45414 9.81158,6.5926 10.24181,12.29503 0.58468,5.68889 -2.72212,11.50234 -7.90725,13.91179 -5.11628,2.54555 -11.71679,1.50026 -15.79621,-2.50155 -0.77169,-0.73679 -1.45898,-1.56187 -2.04418,-2.45399 z"
       style="fill:#e9ddaf"
       id="right-hand" />
  </g>
  <g
     id="cane">
    <path
       d="m 147.92982,327.371 h 5.45613 V 540 h -5.45613 z"
       style="fill:#665e39"
       id="shaft" />
    <path
       d="m 157.95629,320.80252 c 0.0483,3.13355 -2.16659,6.12028 -5.17916,6.98395 -3.01896,0.96816 -6.56384,-0.32764 -8.24499,-3.01634 -1.76612,-2.63365 -1.49962,-6.39852 0.61911,-8.75756 2.04277,-2.42501 5.73448,-3.21044 8.58735,-1.82638 2.53498,1.14894 4.24614,3.83297 4.21769,6.61633 z"
       style="fill:#97844e"
       id="handle" />
  </g>
  <path
     d="m 263.17328,269.76875 h 40.60282 l 51.50158,86.55589 c 0,0 -30.89629,30.86808 -62.12932,33.33628 -31.23304,2.46822 -60.77315,-17.59919 -60.77315,-17.59919 z"
     style="fill:#665e39;fill-opacity:1;stroke-width:60;stroke-linejoin:round"
     id="cape" />
  <g
     id="lower-body">
    <path
       id="legs"
       style="fill:#97844e"
       d="m 244.2299,311.44416 v 228.55582 h 39.79546 V 364.01397 l 4.09038,-10.6211 4.09038,10.6211 v 175.98601 h 39.79685 V 311.44416 h -39.79685 -8.18076 z" />
    <path
       id="right-foot"
       style="fill:#665e39"
       d="m 262.3135,518.17872 a 21.821678,21.821678 0 0 0 -21.82125,21.82126 h 43.53311 v -2.18791 A 21.821678,21.821678 0 0 0 262.3135,518.17872 Z" />
    <path
       id="left-foot"
       style="fill:#665e39"
       d="m 313.9195,518.17872 a 21.821678,21.821678 0 0 0 -21.71338,19.65614 v 2.16512 h 43.53463 A 21.821678,21.821678 0 0 0 313.9195,518.17872 Z" />
  </g>
  <g
     id="torso">
    <path
       d="m 251.95607,141.27142 37.08101,-3.45143 6.19155,66.5198 -37.081,3.45143 z"
       style="fill:#ffffff"
       id="shirt" />
    <path
       d="m 251.43579,135.6824 0.92187,9.9042 c 0.54039,5.80543 15.40293,11.19551 19.6886,10.7966 4.28566,-0.39894 17.90861,-8.34187 17.35916,-14.24494 l -0.92187,-9.90421 z"
       style="fill:#e0d4a7"
       id="neck" />
    <path
       d="m 266.78908,156.79119 c 0.89423,2.8056 1.78845,5.6112 2.68268,8.41681 -1.57557,2.04384 -3.15114,4.08768 -4.7267,6.13152 1.75222,28.18651 3.50445,56.37302 5.25667,84.55953 3.71473,-0.34576 7.42945,-0.69152 11.14416,-1.03728 -3.05772,-32.85108 -6.11544,-65.70216 -9.17316,-98.55323 -1.72789,0.16088 -3.45577,0.32176 -5.18365,0.48265 z m 10.36732,-0.96498 c -0.36107,2.92244 -0.72214,5.84489 -1.0832,8.76734 1.92571,1.71795 3.85141,3.4359 5.77712,5.15385 3.47991,28.02569 6.95982,56.05139 10.43973,84.07709 -3.71472,0.34576 -7.42944,0.69152 -11.14416,1.03728 -3.05772,-32.85108 -6.11544,-65.70216 -9.17316,-98.55323 1.72789,-0.16078 3.45578,-0.32156 5.18367,-0.48233 z"
       style="fill:#808080"
       id="tie" />
    <path
       d="m 256.71134,192.35757 c 6.97175,8.23136 13.9435,16.46271 20.91525,24.69406 2.92294,31.40299 5.84588,62.80598 8.76881,94.20898 -5.85297,7.14928 -11.70595,14.29857 -17.55892,21.44786 -6.99893,-4.15935 -13.99787,-8.31868 -20.9968,-12.47802 2.95723,-42.6243 5.91443,-85.24858 8.87166,-127.87288 z m 36.91374,-3.43587 c -5.33283,9.37665 -10.66566,18.75329 -15.99849,28.12993 2.92294,31.40299 5.84588,62.80598 8.76881,94.20898 7.07189,5.94626 14.14377,11.89252 21.21566,17.83879 6.11106,-5.3796 12.22212,-10.75919 18.33319,-16.13879 -10.77306,-41.3463 -21.54611,-82.6926 -32.31917,-124.03891 z"
       style="fill:#e6e6e6"
       id="vest" />
    <path
       d="m 251.956,141.2713 c 0,0 6.26381,10.81004 19.14297,15.11871 0,0 -8.8131,3.33227 -14.75772,8.07568 -3.6807,-5.50641 -4.38525,-23.19439 -4.38525,-23.19439 z"
       style="fill:#e6e6e6"
       id="right-collar" />
    <path
       id="left-collar"
       style="fill:#e6e6e6"
       d="m 289.00385,137.82388 c 0,0 -4.16115,11.78037 -16.02386,18.39197 0,0 9.27669,1.64852 15.99464,5.2133 2.6012,-6.09112 0.0292,-23.60527 0.0292,-23.60527 z" />
    <path
       d="m 211.93589,161.02059 40.27931,-15.68405 c 0,0 6.99952,73.75871 10.87438,115.55002 3.22153,34.74455 -30.71437,111.17517 -30.71437,111.17517 0,0 -0.53254,-93.48702 -3.40001,-125.85694 -2.86751,-32.3699 -17.03931,-85.1842 -17.03931,-85.1842 z"
       style="fill:#b29b5c"
       id="right-jacket" />
    <path
       id="left-jacket"
       style="fill:#b29b5c"
       d="m 331.98127,149.84697 -42.44258,-7.60518 c 0,0 6.58053,72.42996 10.12882,110.14876 3.54831,37.71881 55.61017,103.93409 55.61017,103.93409 0,0 -21.16573,-87.269 -24.32162,-119.61205 -3.15586,-32.34306 1.02521,-86.86562 1.02521,-86.86562 z" />
    <path
       d="m 304.00546,180.0018 c 5.63727,-0.44002 11.27454,-0.88004 16.91181,-1.32006 0.59437,-0.0583 0.73,0.56427 0.67633,1.03933 0.0567,0.45973 -0.098,1.08641 -0.67633,1.11824 -5.63727,0.44002 -11.27454,0.88003 -16.91181,1.32005 -0.59437,0.0583 -0.72999,-0.56426 -0.67633,-1.03933 -0.0446,-0.46844 0.0733,-1.07584 0.67633,-1.11823 z"
       style="fill:#ffffff"
       id="pocket-square" />
    <path
       d="m 303.16024,181.67195 c -0.39509,0.0344 -0.37611,0.49026 -0.35587,0.77082 0.006,2.31941 -0.013,4.64278 0.01,6.9597 0.12612,0.40435 0.62968,0.18588 0.947,0.19918 6.01445,-0.47088 12.02909,-0.93538 18.04343,-1.41052 0.43972,-0.1096 0.28961,-0.62283 0.31376,-0.93871 -0.007,-2.26193 0.0135,-4.52805 -0.0102,-6.78743 -0.12743,-0.4028 -0.62958,-0.18437 -0.94665,-0.19784 -6.00045,0.46836 -12.00089,0.93672 -18.00133,1.4051 z m 0.35449,0.68485 c 5.96442,-0.46555 11.92883,-0.9311 17.89325,-1.39666 0,2.18385 0,4.36771 0,6.55156 -5.96442,0.46555 -11.92883,0.93111 -17.89325,1.39665 0,-2.18384 0,-4.3677 0,-6.55155 z"
       style="fill:#97844e"
       id="pocket" />
    <path
       d="m 231.92408,158.69618 11.71357,3.18924 -8.05921,-4.49462 16.37756,-16.1195 10.83668,116.41789 C 249.20897,225.75037 235.8207,208.89704 231.92395,158.6962 Z"
       style="fill:#97844e"
       id="right-lapel" />
    <path
       id="left-lapel"
       style="fill:#97844e"
       d="m 311.52485,151.28709 -10.92377,5.29627 7.09126,-5.90479 -18.68849,-12.85469 9.84853,105.86286 c 11.47698,-30.81004 10.98315,-42.49051 12.67264,-92.39967 z" />
    <path
       id="left-seam"
       d="m 330.94273,149.66088 c 0,0 -1.3492,13.43464 -2.28042,27.66983 -0.46561,7.11758 -0.85978,14.43096 -0.92178,20.49498 -0.0166,4.8859 0.23955,10.69341 2.07763,15.31511 l -0.0269,-2.63466 c -2.39336,-12.50284 0.35912,-39.98261 2.18994,-60.65917 z"
       style="fill:#97844e" />
    <path
       style="fill:#97844e"
       d="m 212.9058,160.64292 c 0,0 3.82193,12.95796 7.36437,26.77674 1.77122,6.90939 2.17953,8.11665 3.35962,14.06506 0.91805,4.79891 2.10332,11.11463 1.14975,15.99618 l -0.48023,-2.54977 c -0.2788,-11.40751 -6.74803,-33.92705 -12.36342,-53.91054 z"
       id="right-seam" />
  </g>
  <g
     id="upper-body">
    <path
       d="m 304.98497,66.844117 c 10.14419,14.289757 10.8333,34.474913 1.68728,49.423223 -8.77919,15.11898 -26.7981,24.11084 -44.15751,22.03638 -17.40252,-1.67611 -33.08816,-14.30528 -38.44051,-30.9486 -5.74684,-16.555236 -0.76782,-36.128804 12.19111,-47.925769 12.65455,-12.062579 32.46808,-15.66208 48.55632,-8.818798 8.09959,3.321137 15.18978,9.029435 20.16331,16.233564 z"
       style="fill:#e9ddaf"
       id="head" />
    <path
       d="m 249.35328,50.888554 c -21.28281,9.158299 -32.34435,32.794434 -25.74108,55.003216 12.64378,-5.60731 6.39717,-11.701023 12.35265,-20.632664 5.95547,-8.931647 24.11301,-20.701205 20.62033,-28.818126 -1.0481,-2.435603 -2.56032,-4.66057 -4.50274,-6.624979 -0.92095,0.328222 -1.83113,0.685934 -2.72916,1.072553 z"
       style="fill:#aa8800"
       id="hair" />
  </g>
  <g
     id="hat">
    <path
       d="m 222.46925,11.364571 c 28.17692,-0.483959 56.35384,-0.967917 84.53076,-1.4518757 -0.36368,20.1216047 -0.72736,40.2431967 -1.09104,60.3648037 -27.47153,0.257713 -54.94305,0.515412 -82.41457,0.773125 -0.34172,-19.895346 -0.68344,-39.790707 -1.02515,-59.686053 z"
       style="fill:#b29b5c"
       id="crown" />
    <path
       d="m 307.00849,10.40641 c -0.38449,3.576467 -4.43234,5.076946 -7.26358,6.386886 -13.14395,4.798727 -27.38832,5.529704 -41.25788,5.414757 -10.62995,-0.454817 -21.67142,-1.071251 -31.51192,-5.489894 -2.31473,-1.068121 -5.60123,-3.505794 -4.10864,-6.418676 2.75063,-4.0538712 8.00815,-5.2351926 12.4031,-6.6501413 16.42731,-4.07982849 33.66025,-4.47219687 50.4191,-2.4912548 6.71315,1.109555 13.98483,2.005821 19.59209,6.1849893 0.89355,0.7789559 1.70795,1.8251948 1.72773,3.0633338 z"
       style="fill:#97844e"
       id="crown-shadow" />
    <path
       d="m 327.96453,69.385466 c -0.23743,5.167043 -5.4296,8.132729 -9.48814,10.293061 -14.29057,6.668721 -30.27671,8.517628 -45.84915,9.523727 -18.64156,0.747965 -37.74334,-0.05227 -55.60043,-5.903169 -5.1989,-2.020176 -11.3378,-4.281417 -13.90226,-9.656309 -1.72647,-4.37294 2.20486,-8.328205 5.6196,-10.436355 10.82359,-6.528599 23.6234,-8.639757 35.95829,-10.348181 21.14278,-2.340667 42.86724,-2.104366 63.5831,3.116488 6.60094,1.996204 14.00193,4.07972 18.42973,9.755078 0.73348,1.07579 1.23226,2.34182 1.24926,3.65566 z"
       style="fill:#b29b5c"
       id="brim" />
    <path
       d="m 306.12672,58.223752 c -0.34696,3.807919 0.9783,8.558085 -2.7671,11.109822 -2.7007,1.370203 -4.47345,1.006089 -0.64432,1.014132 5.52256,-0.05184 -3.36578,-0.0079 -5.72683,0.01383 -23.01488,0.215764 -46.02975,0.431535 -69.04463,0.647298 5.13064,6.281973 13.7366,7.891479 21.28095,9.478428 17.16116,2.701708 35.17111,2.18557 51.73458,-3.357099 4.88349,-1.973262 11.09227,-4.344807 12.45245,-10.013751 0.42037,-4.380784 -3.92729,-7.155069 -7.2851,-8.892664 z"
       style="fill:#97844e"
       id="brim-shadow" />
  </g>
</svg>
