<?xml version="1.0" encoding="UTF-8" standalone="no"?>
<svg
   xmlns:dc="http://purl.org/dc/elements/1.1/"
   xmlns:cc="http://creativecommons.org/ns#"
   xmlns:rdf="http://www.w3.org/1999/02/22-rdf-syntax-ns#"
   xmlns:svg="http://www.w3.org/2000/svg"
   xmlns="http://www.w3.org/2000/svg"
   xmlns:sodipodi="http://sodipodi.sourceforge.net/DTD/sodipodi-0.dtd"
   xmlns:inkscape="http://www.inkscape.org/namespaces/inkscape"
   role="img"
   aria-hidden="true"
   focusable="false"
   sodipodi:docname="exclamation.svg"
   width="540"
   height="540"
   viewBox="0 0 540 540"
   version="1.1"
   id="gz-svg-exclamation"
   inkscape:version="1.0 (4035a4fb49, 2020-05-01)">
  <defs
     id="defs12591" />
  <sodipodi:namedview
     inkscape:window-maximized="0"
     inkscape:window-y="24"
     inkscape:window-x="8"
     inkscape:window-height="1044"
     inkscape:window-width="1900"
     showborder="true"
     inkscape:bbox-nodes="true"
     inkscape:bbox-paths="true"
     inkscape:snap-page="true"
     id="base"
     pagecolor="#ffffff"
     bordercolor="#666666"
     borderopacity="1.0"
     inkscape:pageopacity="0.0"
     inkscape:pageshadow="2"
     inkscape:zoom="0.98994949"
     inkscape:cx="293.06618"
     inkscape:cy="307.63505"
     inkscape:document-units="px"
     inkscape:current-layer="gz-svg-exclamation"
     inkscape:document-rotation="0"
     showgrid="false"
     units="px"
     inkscape:showpageshadow="false"
     inkscape:snap-bbox="true"
     inkscape:object-nodes="false" />
  <metadata
     id="metadata12594">
    <rdf:RDF>
      <cc:Work
         rdf:about="">
        <dc:format>image/svg+xml</dc:format>
        <dc:type
           rdf:resource="http://purl.org/dc/dcmitype/StillImage" />
        <dc:title />
      </cc:Work>
    </rdf:RDF>
  </metadata>
  <g
     id="error">
    <path
       id="exclamation-point"
       d="M 238.40625 106.08984 L 238.40625 302.78125 L 303.96875 302.78125 L 303.96875 106.08984 L 238.40625 106.08984 z M 238.40625 368.3457 L 238.40625 433.91016 L 303.96875 433.91016 L 303.96875 368.3457 L 238.40625 368.3457 z "
       style="fill:currentcolor" />
    <path
       d="M 270.01562 0.03125 C 121.26307 0.03124876 0.029294396 121.25727 0.029296875 270.00586 C 0.029296875 418.75444 121.26307 539.98242 270.01562 539.98242 C 418.76818 539.98243 540 418.75445 540 270.00586 C 540 121.25727 418.76819 0.031243802 270.01562 0.03125 z M 270.01562 60.03125 C 386.34306 60.031245 480 153.68496 480 270.00586 C 480 386.32675 386.34306 479.98243 270.01562 479.98242 C 153.68819 479.98242 60.029297 386.32675 60.029297 270.00586 C 60.029295 153.68497 153.68819 60.031249 270.01562 60.03125 z "
       id="circle"
       style="fill:currentcolor" />
  </g>
</svg>
