<?xml version="1.0" encoding="UTF-8" standalone="no"?>
<svg
   xmlns:dc="http://purl.org/dc/elements/1.1/"
   xmlns:cc="http://creativecommons.org/ns#"
   xmlns:rdf="http://www.w3.org/1999/02/22-rdf-syntax-ns#"
   xmlns:svg="http://www.w3.org/2000/svg"
   xmlns="http://www.w3.org/2000/svg"
   xmlns:sodipodi="http://sodipodi.sourceforge.net/DTD/sodipodi-0.dtd"
   xmlns:inkscape="http://www.inkscape.org/namespaces/inkscape"
   sodipodi:docname="linkedin.svg"
   role="img"
   focusable="false"
   aria-hidden="true"
   width="540"
   height="540"
   viewBox="0 0 540 540"
   version="1.1"
   id="gz-svg-linkedin"
   inkscape:version="1.0 (4035a4fb49, 2020-05-01)">
  <defs
     id="defs12591" />
  <sodipodi:namedview
     inkscape:window-maximized="0"
     inkscape:window-y="24"
     inkscape:window-x="8"
     inkscape:window-height="1048"
     inkscape:window-width="1904"
     inkscape:bbox-nodes="true"
     inkscape:bbox-paths="true"
     inkscape:snap-page="true"
     id="base"
     pagecolor="#ffffff"
     bordercolor="#666666"
     borderopacity="1.0"
     inkscape:pageopacity="0.0"
     inkscape:pageshadow="2"
     inkscape:zoom="0.35"
     inkscape:cx="400"
     inkscape:cy="560"
     inkscape:document-units="px"
     inkscape:current-layer="gz-svg-linkedin"
     inkscape:document-rotation="0"
     showgrid="false"
     units="px"
     inkscape:showpageshadow="false"
     inkscape:snap-bbox="true"
     inkscape:object-nodes="false" />
  <metadata
     id="metadata12594">
    <rdf:RDF>
      <cc:Work
         rdf:about="">
        <dc:format>image/svg+xml</dc:format>
        <dc:type
           rdf:resource="http://purl.org/dc/dcmitype/StillImage" />
        <dc:title></dc:title>
      </cc:Work>
    </rdf:RDF>
  </metadata>
  <path
     style="fill:currentcolor"
     d="M 270.00001,0 C 120.90592,0 2.609636e-6,120.90591 2.609636e-6,270 2.609636e-6,419.09408 120.90592,540 270.00001,540 419.09408,540 540,419.09408 540,270 540,120.90591 419.09408,0 270.00001,0 Z M 191.54114,408.16407 H 125.78385 V 210.33188 h 65.75729 z m -32.87658,-224.8462 h -0.42847 c -22.06604,0 -36.33728,-15.18997 -36.33728,-34.17435 0,-19.41284 14.70794,-34.18258 37.20245,-34.18258 22.49451,0 36.33728,14.76974 36.76575,34.18258 0,18.98438 -14.27124,34.17435 -37.20245,34.17435 z m 269.98351,224.8462 H 362.89903 V 302.32865 c 0,-26.5979 -9.52103,-44.73771 -33.3133,-44.73771 -18.16452,0 -28.98331,12.23602 -33.73763,24.0477 -1.73859,4.22699 -2.16294,10.13489 -2.16294,16.0469 v 110.47853 h -65.75317 c 0,0 0.86105,-179.27217 0,-197.83219 h 65.75317 v 28.01102 c 8.73825,-13.48023 24.37317,-32.65412 59.26025,-32.65412 43.26278,0 75.70266,28.27469 75.70266,89.0387 z m 0,0"
     id="linkedin" />
</svg>
