<?xml version="1.0" encoding="UTF-8" standalone="no"?>
<svg
   xmlns:dc="http://purl.org/dc/elements/1.1/"
   xmlns:cc="http://creativecommons.org/ns#"
   xmlns:rdf="http://www.w3.org/1999/02/22-rdf-syntax-ns#"
   xmlns:svg="http://www.w3.org/2000/svg"
   xmlns="http://www.w3.org/2000/svg"
   xmlns:sodipodi="http://sodipodi.sourceforge.net/DTD/sodipodi-0.dtd"
   xmlns:inkscape="http://www.inkscape.org/namespaces/inkscape"
   role="img"
   width="540"
   height="540"
   viewBox="0 0 540 540"
   version="1.1"
   id="gz-svg-misc"
   inkscape:version="1.0 (4035a4fb49, 2020-05-01)"
   sodipodi:docname="misc.svg"
   focusable="false"
   aria-hidden="true">
  <defs
     id="defs1289" />
  <sodipodi:namedview
     inkscape:guide-bbox="true"
     showguides="true"
     inkscape:bbox-nodes="true"
     inkscape:bbox-paths="true"
     inkscape:object-nodes="false"
     inkscape:snap-bbox="true"
     inkscape:snap-page="true"
     units="px"
     id="base"
     pagecolor="#ffffff"
     bordercolor="#666666"
     borderopacity="1.0"
     inkscape:pageopacity="0.0"
     inkscape:pageshadow="2"
     inkscape:zoom="0.7"
     inkscape:cx="330.07289"
     inkscape:cy="268.35529"
     inkscape:document-units="px"
     inkscape:current-layer="gz-svg-misc"
     inkscape:document-rotation="0"
     showgrid="false"
     inkscape:window-width="1904"
     inkscape:window-height="1048"
     inkscape:window-x="8"
     inkscape:window-y="24"
     inkscape:window-maximized="0">
    <inkscape:grid
       id="grid11823"
       type="xygrid" />
  </sodipodi:namedview>
  <metadata
     id="metadata1292">
    <rdf:RDF>
      <cc:Work
         rdf:about="">
        <dc:format>image/svg+xml</dc:format>
        <dc:type
           rdf:resource="http://purl.org/dc/dcmitype/StillImage" />
        <dc:title />
      </cc:Work>
    </rdf:RDF>
  </metadata>
  <path
     d="m 343.76473,270 c 0,40.77551 -32.98923,73.76473 -73.76473,73.76473 -40.7755,0 -73.76473,-32.98922 -73.76473,-73.76473 0,-40.7755 32.98923,-73.76473 73.76473,-73.76473 40.7755,0 73.76473,32.98923 73.76473,73.76473 z m 106.549,-73.76473 c -40.7755,0 -73.7647,32.98923 -73.7647,73.76473 0,40.77551 32.9892,73.76473 73.7647,73.76473 40.77554,0 73.76477,-32.98922 73.76477,-73.76473 0,-40.7755 -32.98923,-73.76473 -73.76477,-73.76473 z m -360.627505,0 c -40.775505,0 -73.764729,32.98923 -73.764729,73.76473 0,40.77551 32.989224,73.76473 73.764729,73.76473 40.775495,0 73.764725,-32.98922 73.764725,-73.76473 0,-40.7755 -32.98923,-73.76473 -73.764725,-73.76473 z"
     id="misc"
     style="fill: currentcolor" />
</svg>
