<?xml version="1.0" encoding="UTF-8" standalone="no"?>
<svg
   xmlns:dc="http://purl.org/dc/elements/1.1/"
   xmlns:cc="http://creativecommons.org/ns#"
   xmlns:rdf="http://www.w3.org/1999/02/22-rdf-syntax-ns#"
   xmlns:svg="http://www.w3.org/2000/svg"
   xmlns="http://www.w3.org/2000/svg"
   xmlns:sodipodi="http://sodipodi.sourceforge.net/DTD/sodipodi-0.dtd"
   xmlns:inkscape="http://www.inkscape.org/namespaces/inkscape"
   focusable="false"
   role="img"
   aria-hidden="true"
   width="540"
   height="540"
   viewBox="0 0 540 540"
   version="1.1"
   id="gz-svg-skip-forward"
   inkscape:version="1.0 (4035a4fb49, 2020-05-01)"
   sodipodi:docname="skip-forward.svg">
  <defs
     id="defs2">
    <marker
       inkscape:isstock="true"
       style="overflow:visible"
       id="marker1172"
       refX="0.0"
       refY="0.0"
       orient="auto"
       inkscape:stockid="TriangleInS">
      <path
         transform="scale(-0.2)"
         style="fill-rule:evenodd;stroke:#000000;stroke-width:1pt;stroke-opacity:1;fill:#000000;fill-opacity:1"
         d="M 5.77,0.0 L -2.88,5.0 L -2.88,-5.0 L 5.77,0.0 z "
         id="path1170" />
    </marker>
    <marker
       inkscape:stockid="TriangleInM"
       orient="auto"
       refY="0.0"
       refX="0.0"
       id="marker1566"
       style="overflow:visible"
       inkscape:isstock="true">
      <path
         id="path1564"
         d="M 5.77,0.0 L -2.88,5.0 L -2.88,-5.0 L 5.77,0.0 z "
         style="fill-rule:evenodd;stroke:#000000;stroke-width:1pt;stroke-opacity:1;fill:#000000;fill-opacity:1"
         transform="scale(-0.4)" />
    </marker>
    <marker
       inkscape:stockid="TriangleInM"
       orient="auto"
       refY="0.0"
       refX="0.0"
       id="TriangleInM"
       style="overflow:visible"
       inkscape:isstock="true">
      <path
         id="path973"
         d="M 5.77,0.0 L -2.88,5.0 L -2.88,-5.0 L 5.77,0.0 z "
         style="fill-rule:evenodd;stroke:#000000;stroke-width:1pt;stroke-opacity:1;fill:#000000;fill-opacity:1"
         transform="scale(-0.4)" />
    </marker>
    <marker
       inkscape:stockid="TriangleInL"
       orient="auto"
       refY="0.0"
       refX="0.0"
       id="TriangleInL"
       style="overflow:visible"
       inkscape:isstock="true">
      <path
         id="path970"
         d="M 5.77,0.0 L -2.88,5.0 L -2.88,-5.0 L 5.77,0.0 z "
         style="fill-rule:evenodd;stroke:#000000;stroke-width:1pt;stroke-opacity:1;fill:#000000;fill-opacity:1"
         transform="scale(-0.8)" />
    </marker>
    <marker
       inkscape:stockid="RazorWire"
       id="RazorWire"
       refX="0"
       refY="0"
       orient="auto"
       style="overflow:visible"
       inkscape:isstock="true">
      <path
         id="path1069"
         transform="scale(0.8,0.8)"
         style="fill:#000000;fill-opacity:1;fill-rule:evenodd;stroke:#000000;stroke-width:0.1pt;stroke-opacity:1"
         d="M 0.022727273,-0.74009011 L 0.022727273,0.69740989 L -7.7585227,3.0099099 L 10.678977,3.0099099 L 3.4914773,0.69740989 L 3.4914773,-0.74009011 L 10.741477,-2.8963401 L -7.7272727,-2.8963401 L 0.022727273,-0.74009011 z " />
    </marker>
    <marker
       inkscape:stockid="Legs"
       orient="auto"
       refY="0.0"
       refX="0.0"
       id="Legs"
       style="overflow:visible"
       inkscape:isstock="true">
      <g
         id="g1046"
         transform="scale(-0.7)"
         style="stroke:#000000;stroke-opacity:1;fill:#000000;fill-opacity:1">
        <g
           id="g1040"
           transform="matrix(0,-1.000000,-1.000000,0,20.70862,21.31391)"
           style="stroke:#000000;stroke-opacity:1;fill:#000000;fill-opacity:1">
          <path
             id="path1036"
             d="M 21.221250,20.675360 C 14.311099,25.396517 18.766725,27.282204 15.380179,34.118595"
             style="fill:#000000;fill-opacity:1;fill-rule:evenodd;stroke:#000000;stroke-width:1pt;stroke-opacity:1" />
          <path
             id="path1038"
             d="M 21.398110,20.548120 C 20.037601,28.895644 24.934182,29.318060 25.903151,34.373078"
             style="fill:#000000;fill-opacity:1;fill-rule:evenodd;stroke:#000000;stroke-width:1pt;stroke-opacity:1" />
        </g>
        <path
           id="path1042"
           d="M -14.090070,-6.7318716 L -15.012238,-2.6884886 L -11.049487,-3.9115586 L -14.090070,-6.7318716 z "
           style="fill:#000000;fill-rule:evenodd;stroke-width:1pt;stroke:#000000;stroke-opacity:1;fill-opacity:1" />
        <path
           id="path1044"
           d="M -15.215679,4.5567534 L -13.341552,8.2563664 L -11.074678,4.7835114 L -15.215679,4.5567534 z "
           style="fill:#000000;fill-rule:evenodd;stroke-width:1pt;stroke:#000000;stroke-opacity:1;fill-opacity:1" />
      </g>
    </marker>
  </defs>
  <sodipodi:namedview
     inkscape:guide-bbox="true"
     showguides="true"
     id="base"
     pagecolor="#ffffff"
     bordercolor="#666666"
     borderopacity="1.0"
     inkscape:pageopacity="0.0"
     inkscape:pageshadow="2"
     inkscape:zoom="0.7"
     inkscape:cx="310.48184"
     inkscape:cy="380.75964"
     inkscape:document-units="px"
     inkscape:current-layer="gz-svg-skip-forward"
     inkscape:document-rotation="0"
     showgrid="false"
     units="px"
     inkscape:snap-page="true"
     inkscape:snap-bbox="true"
     inkscape:bbox-paths="true"
     inkscape:snap-bbox-edge-midpoints="false"
     inkscape:bbox-nodes="true"
     showborder="true"
     inkscape:window-width="1900"
     inkscape:window-height="1044"
     inkscape:window-x="8"
     inkscape:window-y="24"
     inkscape:window-maximized="0" />
  <metadata
     id="metadata5">
    <rdf:RDF>
      <cc:Work
         rdf:about="">
        <dc:format>image/svg+xml</dc:format>
        <dc:type
           rdf:resource="http://purl.org/dc/dcmitype/StillImage" />
        <dc:title></dc:title>
      </cc:Work>
    </rdf:RDF>
  </metadata>
  <path
     style="fill:currentcolor"
     d="M 276.89296,0.00729695 C 236.18129,0.30113073 195.85027,9.9329407 159.38119,28.075666 120.96421,47.083656 87.250378,75.10388 61.724912,109.81789 31.980775,150.08187 13.998493,198.20393 9.9045809,248.02106 c -3.7163351,44.0988 3.5857311,88.73573 21.2812571,129.35552 17.987875,41.49025 46.261432,78.23334 82.250032,106.04303 38.68959,30.0356 85.18331,48.9572 133.71294,54.67774 h 0.0234 c 44.9348,5.38625 90.83303,-0.70272 132.82231,-17.76759 0.0113,-0.004 0.0265,-0.0113 0.0393,-0.0151 0.008,0 0.0113,-0.008 0.0151,-0.008 40.18122,-16.27843 76.27245,-42.06852 104.51959,-75.28713 l -60.46489,-51.41798 c -19.70596,23.17421 -45.50218,41.66313 -73.89847,53.15822 l -0.0234,0.0151 -0.0295,0.008 c -29.31095,11.91704 -62.07987,16.285 -93.55226,12.50982 l -0.0449,-0.008 -0.0508,-0.008 c -34.06827,-4.00203 -67.3928,-17.58172 -94.41412,-38.56335 l -0.037,-0.0302 -0.0449,-0.034 c -25.0628,-19.35413 -45.32438,-45.60299 -58.00587,-74.86055 l -0.0155,-0.0351 -0.0136,-0.037 C 91.611194,317.3567 86.385936,285.5152 88.994453,254.64411 v -0.0449 l 0.0079,-0.0527 C 91.867654,219.6204 104.77727,185.11163 125.56486,156.9742 l 0.037,-0.0449 0.0295,-0.037 c 17.7921,-24.21549 41.85098,-44.27949 68.9607,-57.689554 l 0.0449,-0.02343 0.043,-0.02343 C 221.90282,85.602829 252.7665,78.710048 283.14491,79.417572 h 0.0527 l 0.0508,0.0079 c 34.98621,0.729369 70.18117,11.501972 99.52347,30.503918 l 0.0431,0.0295 0.0378,0.0295 c 9.58545,6.17311 18.62169,13.28491 26.96681,21.15822 l -48.02544,27.72266 c 56.37842,32.51687 112.75311,65.04021 169.13288,97.55473 l 0.1115,-195.255935 -50.35355,29.066416 C 464.66485,72.244686 446.23292,56.403219 425.86762,43.282703 383.91176,16.124136 334.85646,1.116094 284.93202,0.06979696 h -0.0295 c -1.35663,-0.03110929 -2.71379,-0.05219248 -4.07013,-0.06250001 -1.31396,-0.00998546 -2.62617,-0.00947852 -3.93945,0 z M 216.84605,185.96636 v 97.8223 h 18.1504 c 4.55721,-4.55724 9.66506,-8.01391 15.32228,-10.3711 5.81436,-2.51434 11.94182,-3.77149 18.38477,-3.77149 9.58585,0 17.12884,2.74989 22.62891,8.25 5.65723,5.34299 8.48634,12.65027 8.48634,21.92189 0,9.58591 -2.74993,16.97239 -8.25001,22.15821 -5.50007,5.18582 -13.43702,7.77735 -23.80859,7.77735 -15.71452,0 -31.11332,-5.73537 -46.19924,-17.20704 l -10.13672,22.15821 c 6.60009,5.81441 14.92905,10.52823 24.98633,14.14259 10.21443,3.45721 20.50734,5.18554 30.87892,5.18554 12.41446,0 23.17857,-2.2787 32.29298,-6.83593 9.27156,-4.55724 16.42253,-10.9994 21.45118,-19.32814 5.02864,-8.32874 7.54297,-17.99392 7.54297,-28.99415 0,-10.37164 -2.19955,-19.56368 -6.59961,-27.57813 -4.24292,-8.01447 -10.37233,-14.22297 -18.38673,-18.62306 -7.85726,-4.55724 -16.97218,-6.83594 -27.34376,-6.83594 -11.78587,0 -21.68483,2.82907 -29.69922,8.48633 v -44.78712 h 74.48635 v -23.57032 z"
     id="skip-forward" />
</svg>
